<?xml version="1.0" encoding="UTF-8"?>
<svg width="64px" height="64px" viewBox="0 0 64 64" version="1.1" xmlns="http://www.w3.org/2000/svg" xmlns:xlink="http://www.w3.org/1999/xlink">
    <title>icon_light_bulb</title>
    <g id="Symbols" stroke="none" stroke-width="1" fill="none" fill-rule="evenodd">
        <g id="icon/light-bulb" fill-rule="nonzero">
            <g id="idea" transform="translate(6, 6)">
                <path d="M36.083004,19.0494071 C35.4177866,19.0494071 34.8735178,18.5051383 34.8735178,17.8399209 C34.8735178,12.6693676 30.6705534,8.46640316 25.5,8.46640316 C24.8347826,8.46640316 24.2905138,7.92213439 24.2905138,7.256917 C24.2905138,6.5916996 24.8347826,6.04743083 25.5,6.04743083 C32.0009881,6.04743083 37.2924901,11.3389328 37.2924901,17.8399209 C37.2924901,18.5051383 36.7482213,19.0494071 36.083004,19.0494071 Z" id="Path" fill="#BB2327"></path>
                <path d="M25.5,51 C23.7664032,51 22.0932806,50.3650198 20.783004,49.2160079 C19.5029644,48.0871542 18.636166,46.5551383 18.3539526,44.8820158 C18.3337945,44.7711462 18.2531621,44.6804348 18.1523715,44.6401186 C16.3986166,44.0656126 15.2294466,42.4529644 15.2294466,40.6185771 L15.2294466,37.5948617 C15.2294466,34.7424901 14.1106719,31.8598814 12.1754941,29.6727273 C8.36561265,25.3891304 6.87391304,19.6541502 8.08339921,13.9494071 C8.78893281,10.6434783 10.4519763,7.59960474 12.9011858,5.17055336 C15.3403162,2.74150198 18.3741107,1.08853755 21.6800395,0.403162055 C22.95,0.141106719 24.2300395,0 25.5,0 C30.2472332,0 34.712253,1.83438735 38.0887352,5.18063241 C41.4853755,8.54703557 43.3600791,13.0422925 43.3600791,17.8399209 C43.3600791,22.163834 41.787747,26.3264822 38.9454545,29.5820158 C36.8994071,31.8901186 35.7806324,34.7324111 35.7806324,37.5948617 L35.7806324,40.6185771 C35.7806324,42.4529644 34.6013834,44.0756917 32.8577075,44.6401186 C32.7468379,44.6703557 32.6762846,44.7711462 32.6561265,44.8820158 C32.373913,46.5551383 31.5071146,48.0871542 30.2270751,49.2160079 C28.9067194,50.3650198 27.2335968,51 25.5,51 Z M21.2264822,44.8416996 C21.1256917,44.8416996 21.0349802,44.8920949 20.984585,44.9727273 C20.9341897,45.0533597 20.9140316,45.1541502 20.9442688,45.2448617 C21.6296443,47.2102767 23.5043478,48.5810277 25.5100791,48.5810277 C27.5057312,48.5810277 29.3804348,47.2102767 30.0758893,45.2448617 C30.1061265,45.1541502 30.0960474,45.0533597 30.0355731,44.9727273 C29.9750988,44.8920949 29.8843874,44.8416996 29.7936759,44.8416996 L21.2264822,44.8416996 Z M17.9407115,38.8043478 C17.7693676,38.8043478 17.6383399,38.9353755 17.6383399,39.1067194 L17.6383399,40.6185771 C17.6383399,41.6164032 18.4547431,42.4328063 19.4525692,42.4328063 L31.5474308,42.4328063 C32.5452569,42.4328063 33.3616601,41.6164032 33.3616601,40.6185771 L33.3616601,39.1067194 C33.3616601,38.9353755 33.2306324,38.8043478 33.0592885,38.8043478 L17.9407115,38.8043478 Z M25.4798419,2.41897233 C24.3812253,2.41897233 23.2624506,2.53992095 22.163834,2.76166008 C16.3784585,3.97114625 11.6715415,8.66798419 10.4418972,14.4432806 C9.39367589,19.3920949 10.6837945,24.3509881 13.9695652,28.0600791 C15.9551383,30.2976285 17.2351779,33.15 17.5577075,36.1031621 C17.5778656,36.2543478 17.7088933,36.3752964 17.8600791,36.3752964 L33.1399209,36.3752964 C33.2911067,36.3752964 33.4221344,36.2543478 33.4422925,36.1031621 C33.7648221,33.1399209 35.0347826,30.3278656 37.1009881,27.9693676 C39.5703557,25.1774704 40.9209486,21.56917 40.9209486,17.8399209 C40.9209486,13.6873518 39.3083004,9.806917 36.3752964,6.9041502 C33.4523715,4.01146245 29.5820158,2.41897233 25.4798419,2.41897233 Z" id="Shape" fill="#353535"></path>
                <path d="M1.20948617,20.5612648 C0.544268775,20.5612648 0,20.016996 0,19.3517787 C0,18.6865613 0.544268775,18.1422925 1.20948617,18.1422925 L4.23320158,18.1422925 C4.89841897,18.1422925 5.44268775,18.6865613 5.44268775,19.3517787 C5.44268775,20.016996 4.89841897,20.5612648 4.23320158,20.5612648 L1.20948617,20.5612648 Z" id="Path" fill="#BB2327"></path>
                <path d="M3.78972332,12.558498 C3.46719368,12.558498 3.16482213,12.4375494 2.93300395,12.2057312 L0.796245059,10.0689723 C0.322529644,9.59525692 0.322529644,8.82924901 0.796245059,8.3555336 C1.02806324,8.12371542 1.33043478,8.0027668 1.65296443,8.0027668 C1.97549407,8.0027668 2.27786561,8.12371542 2.50968379,8.3555336 L4.64644269,10.4922925 C5.1201581,10.9660079 5.1201581,11.7320158 4.64644269,12.2057312 C4.41462451,12.4274704 4.11225296,12.558498 3.78972332,12.558498 C3.78972332,12.558498 3.78972332,12.558498 3.78972332,12.558498 Z" id="Path" fill="#BB2327"></path>
                <path d="M1.65296443,30.7007905 C1.33043478,30.7007905 1.02806324,30.5798419 0.796245059,30.3480237 C0.564426877,30.1162055 0.443478261,29.813834 0.443478261,29.4913043 C0.443478261,29.1687747 0.564426877,28.8664032 0.796245059,28.634585 L2.93300395,26.4978261 C3.16482213,26.2660079 3.46719368,26.1450593 3.78972332,26.1450593 C4.11225296,26.1450593 4.41462451,26.2660079 4.64644269,26.4978261 C4.87826087,26.7296443 4.99920949,27.0320158 4.99920949,27.3545455 C4.99920949,27.6770751 4.87826087,27.9794466 4.64644269,28.2112648 L2.50968379,30.3480237 C2.27786561,30.5697628 1.97549407,30.7007905 1.65296443,30.7007905 C1.65296443,30.7007905 1.65296443,30.7007905 1.65296443,30.7007905 Z" id="Path" fill="#BB2327"></path>
                <path d="M46.7667984,20.5612648 C46.101581,20.5612648 45.5573123,20.016996 45.5573123,19.3517787 C45.5573123,18.6865613 46.101581,18.1422925 46.7667984,18.1422925 L49.7905138,18.1422925 C50.4557312,18.1422925 51,18.6865613 51,19.3517787 C51,20.016996 50.4557312,20.5612648 49.7905138,20.5612648 L46.7667984,20.5612648 Z" id="Path" fill="#BB2327"></path>
                <path d="M47.2102767,12.558498 C46.887747,12.558498 46.5853755,12.4375494 46.3535573,12.2057312 C46.1217391,11.973913 46.0007905,11.6715415 46.0007905,11.3490119 C46.0007905,11.0264822 46.1217391,10.7241107 46.3535573,10.4922925 L48.4903162,8.3555336 C48.7221344,8.12371542 49.0245059,8.0027668 49.3470356,8.0027668 C49.6695652,8.0027668 49.9719368,8.12371542 50.2037549,8.3555336 C50.4355731,8.58735178 50.5565217,8.88972332 50.5565217,9.21225296 C50.5565217,9.53478261 50.4355731,9.83715415 50.2037549,10.0689723 L48.066996,12.2057312 C47.8351779,12.4274704 47.5328063,12.558498 47.2102767,12.558498 L47.2102767,12.558498 Z" id="Path" fill="#BB2327"></path>
                <path d="M49.3470356,30.7007905 C49.0245059,30.7007905 48.7221344,30.5798419 48.4903162,30.3480237 L46.3535573,28.2112648 C46.1217391,27.9794466 46.0007905,27.6770751 46.0007905,27.3545455 C46.0007905,27.0320158 46.1217391,26.7296443 46.3535573,26.4978261 C46.5853755,26.2660079 46.887747,26.1450593 47.2102767,26.1450593 C47.5328063,26.1450593 47.8351779,26.2660079 48.066996,26.4978261 L50.2037549,28.634585 C50.4355731,28.8664032 50.5565217,29.1687747 50.5565217,29.4913043 C50.5565217,29.813834 50.4355731,30.1162055 50.2037549,30.3480237 C49.9719368,30.5697628 49.6695652,30.7007905 49.3470356,30.7007905 L49.3470356,30.7007905 Z" id="Path" fill="#BB2327"></path>
            </g>
        </g>
    </g>
</svg>