<?xml version="1.0" encoding="UTF-8"?>
<svg width="64px" height="64px" viewBox="0 0 64 64" version="1.1" xmlns="http://www.w3.org/2000/svg" xmlns:xlink="http://www.w3.org/1999/xlink">
    <title>icon_bilingual</title>
    <g id="Symbols" stroke="none" stroke-width="1" fill="none" fill-rule="evenodd">
        <g id="icon/Bilingual" fill-rule="nonzero">
            <g id="language" transform="translate(3, 3)">
                <path d="M10.5929204,35.3451327 C4.75221239,35.3451327 0,30.5929204 0,24.7522124 L0,10.5929204 C0,4.75221239 4.75221239,0 10.5929204,0 L24.7522124,0 C30.5929204,0 35.3451327,4.75221239 35.3451327,10.5929204 L35.3451327,24.7522124 C35.3451327,30.5929204 30.5929204,35.3451327 24.7522124,35.3451327 L10.5929204,35.3451327 Z M10.5929204,2.30973451 C6.02654867,2.30973451 2.30088496,6.02654867 2.30088496,10.6017699 L2.30088496,24.7610619 C2.30088496,29.3274336 6.01769912,33.0530973 10.5929204,33.0530973 L24.7522124,33.0530973 C29.3185841,33.0530973 33.0442478,29.3362832 33.0442478,24.7610619 L33.0442478,10.6017699 C33.0442478,6.03539823 29.3274336,2.30973451 24.7522124,2.30973451 L10.5929204,2.30973451 Z" id="Shape" fill="#353535"></path>
                <path d="M33.2477876,58 C27.4070796,58 22.6548673,53.2477876 22.6548673,47.4070796 L22.6548673,42.6902655 C22.6548673,42.0530973 23.1681416,41.539823 23.8053097,41.539823 C24.4424779,41.539823 24.9557522,42.0530973 24.9557522,42.6902655 L24.9557522,47.4070796 C24.9557522,51.9734513 28.6725664,55.699115 33.2477876,55.699115 L47.4070796,55.699115 C51.9734513,55.699115 55.699115,51.9823009 55.699115,47.4070796 L55.699115,33.2477876 C55.699115,28.6814159 51.9823009,24.9557522 47.4070796,24.9557522 L42.6902655,24.9557522 C42.0530973,24.9557522 41.539823,24.4424779 41.539823,23.8053097 C41.539823,23.1681416 42.0530973,22.6548673 42.6902655,22.6548673 L47.4070796,22.6548673 C53.2477876,22.6548673 58,27.4070796 58,33.2477876 L58,47.4070796 C58,53.2477876 53.2477876,58 47.4070796,58 L33.2477876,58 Z" id="Path" fill="#353535"></path>
                <path d="M47.8849558,49.0353982 C47.4424779,49.0353982 47.0530973,48.7876106 46.8584071,48.3982301 L44.9911504,44.6548673 C44.8849558,44.4424779 44.6725664,44.3097345 44.4336283,44.3097345 L37.1858407,44.3097345 C36.9469027,44.3097345 36.7345133,44.4424779 36.6283186,44.6548673 L34.7610619,48.3982301 C34.5663717,48.7876106 34.1681416,49.0353982 33.7345133,49.0353982 C33.5575221,49.0353982 33.380531,48.9911504 33.2212389,48.9115044 C32.9469027,48.7787611 32.7433628,48.539823 32.6460177,48.2477876 C32.5486726,47.9557522 32.5663717,47.6460177 32.7079646,47.3716814 L39.7876106,33.2123894 C39.9823009,32.8230088 40.380531,32.5752212 40.8141593,32.5752212 C41.2477876,32.5752212 41.6460177,32.8230088 41.840708,33.2123894 L48.920354,47.3716814 C49.2035398,47.9380531 48.9734513,48.6283186 48.4070796,48.9115044 C48.2389381,48.9911504 48.0619469,49.0353982 47.8849558,49.0353982 L47.8849558,49.0353982 Z M40.8053097,37.0619469 C40.5663717,37.0619469 40.3539823,37.1946903 40.2477876,37.4070796 L38.3893805,41.1150442 C38.2920354,41.3097345 38.300885,41.5309735 38.4159292,41.7168142 C38.5309735,41.9026549 38.7256637,42.0088496 38.9469027,42.0088496 L42.6548673,42.0088496 C42.8672566,42.0088496 43.0707965,41.9026549 43.1858407,41.7168142 C43.300885,41.5309735 43.3097345,41.3097345 43.2123894,41.1150442 L41.3539823,37.4070796 C41.2477876,37.1946903 41.0353982,37.0619469 40.8053097,37.0619469 Z" id="Shape" fill="#BB2327"></path>
                <path d="M22.3982301,25.9026549 C22.2212389,25.9026549 22.0442478,25.8584071 21.8849558,25.7787611 L20.8849558,25.2831858 C19.8849558,24.7876106 18.9380531,24.1769912 18.0619469,23.4867257 C17.9557522,23.3982301 17.8141593,23.3539823 17.6814159,23.3539823 C17.5486726,23.3539823 17.4070796,23.3982301 17.300885,23.4867257 C16.4247788,24.1769912 15.4690265,24.7787611 14.4778761,25.2831858 L13.4778761,25.7787611 C13.3185841,25.8584071 13.1415929,25.9026549 12.9646018,25.9026549 C12.5221239,25.9026549 12.1327434,25.6548673 11.9380531,25.2654867 C11.7964602,24.9911504 11.7787611,24.6814159 11.8761062,24.3893805 C11.9734513,24.0973451 12.1769912,23.8584071 12.4513274,23.7256637 L13.4513274,23.2300885 C14.159292,22.8761062 14.8495575,22.4513274 15.4955752,21.9823009 C15.6283186,21.8849558 15.7256637,21.7256637 15.7433628,21.5575221 C15.7610619,21.3893805 15.7168142,21.2212389 15.6017699,21.0884956 C15.1150442,20.5044248 14.6725664,19.8761062 14.2654867,19.2300885 C12.9734513,17.1415929 12.159292,14.7433628 11.9026549,12.300885 C11.8672566,11.9823009 11.6017699,11.7433628 11.2831858,11.7433628 L10.6017699,11.7433628 C9.96460177,11.7433628 9.45132743,11.2300885 9.45132743,10.5929204 C9.45132743,9.95575221 9.96460177,9.44247788 10.6017699,9.44247788 L24.7610619,9.44247788 C25.3982301,9.44247788 25.9115044,9.95575221 25.9115044,10.5929204 C25.9115044,11.2300885 25.3982301,11.7433628 24.7610619,11.7433628 L24.079646,11.7433628 C23.7610619,11.7433628 23.4955752,11.9823009 23.460177,12.300885 C23.2035398,14.7433628 22.3893805,17.1415929 21.0973451,19.2300885 C20.699115,19.8761062 20.2477876,20.4955752 19.7610619,21.0884956 C19.6548673,21.2212389 19.6017699,21.3893805 19.619469,21.5575221 C19.6371681,21.7256637 19.7345133,21.8849558 19.8672566,21.9823009 C20.5132743,22.4513274 21.1946903,22.8761062 21.9115044,23.2300885 L22.9115044,23.7256637 C23.1858407,23.8672566 23.3893805,24.0973451 23.4867257,24.3893805 C23.5840708,24.6814159 23.5575221,24.9911504 23.4247788,25.2654867 C23.2300885,25.6637168 22.8318584,25.9026549 22.3982301,25.9026549 Z M14.840708,11.7433628 C14.6637168,11.7433628 14.4955752,11.8230088 14.3716814,11.9557522 C14.2566372,12.0884956 14.2035398,12.2654867 14.2212389,12.4424779 C14.4867257,14.4336283 15.1504425,16.3097345 16.2035398,18.0176991 C16.4955752,18.4867257 16.8230088,18.9557522 17.1769912,19.3982301 C17.2920354,19.5486726 17.4690265,19.6283186 17.6637168,19.6283186 C17.8495575,19.6283186 18.0265487,19.539823 18.1504425,19.3982301 C18.5044248,18.9469027 18.840708,18.4867257 19.1238938,18.0176991 C20.1769912,16.3097345 20.8495575,14.4336283 21.1061947,12.4424779 C21.1327434,12.2654867 21.079646,12.0884956 20.9557522,11.9557522 C20.840708,11.8230088 20.6725664,11.7433628 20.4867257,11.7433628 L14.840708,11.7433628 Z" id="Shape" fill="#BB2327"></path>
            </g>
        </g>
    </g>
</svg>